<svg xmlns="http://www.w3.org/2000/svg" version="1.1" xmlns:xlink="http://www.w3.org/1999/xlink" xmlns:svgjs="http://svgjs.dev/svgjs" width="1500" height="458" viewBox="0 0 1500 458"><g transform="matrix(1,0,0,1,-0.9090909090909918,-0.5579797246991234)"><svg viewBox="0 0 396 121" data-background-color="#ffffff" preserveAspectRatio="xMidYMid meet" height="458" width="1500" xmlns="http://www.w3.org/2000/svg" xmlns:xlink="http://www.w3.org/1999/xlink"><g id="tight-bounds" transform="matrix(1,0,0,1,0.2400000000000091,0.14741385739867496)"><svg viewBox="0 0 395.52 120.70517228520266" height="120.70517228520266" width="395.52"><g><svg viewBox="0 0 640.3107307285293 195.41064186046506" height="120.70517228520266" width="395.52"><g><rect width="8.076081926816743" height="195.41064186046506" x="215.57307307706142" y="0" fill="#000000" opacity="1" stroke-width="0" stroke="transparent" fill-opacity="1" class="rect-qz-0" data-fill-palette-color="primary" rx="1%" id="qz-0" data-palette-color="#000000"></rect></g><g transform="matrix(1,0,0,1,244.79073072852933,0.48609612403099334)"><svg viewBox="0 0 395.52 194.43844961240308" height="194.43844961240308" width="395.52"><g id="textblocktransform"><svg viewBox="0 0 395.52 194.43844961240308" height="194.43844961240308" width="395.52" id="textblock"><g><svg viewBox="0 0 395.52 194.43844961240308" height="194.43844961240308" width="395.52"><g transform="matrix(1,0,0,1,0,0)"><svg width="395.52" viewBox="2.6000000000000014 -35 154.80000000000004 73.1" height="194.43844961240308" data-palette-color="#000000"><svg></svg><svg></svg><g class="wordmark-text-0" data-fill-palette-color="primary" id="text-0"><path d="M17.95 0h-11.35c-0.933 0-1.75-0.35-2.45-1.05-0.7-0.7-1.05-1.567-1.05-2.6v0-27.7c0-1.033 0.35-1.9 1.05-2.6 0.7-0.7 1.517-1.05 2.45-1.05v0h11.35c1.067 0 1.943 0.35 2.63 1.05 0.68 0.7 1.02 1.567 1.02 2.6v0 27.7c0 1.033-0.34 1.9-1.02 2.6-0.687 0.7-1.563 1.05-2.63 1.05zM9.45-4.6v0h5.65c0.567 0 1.027-0.183 1.38-0.55 0.347-0.367 0.52-0.817 0.52-1.35v0-22c0-0.567-0.173-1.027-0.52-1.38-0.353-0.347-0.813-0.52-1.38-0.52v0h-5.65c-0.467 0-0.877 0.173-1.23 0.52-0.347 0.353-0.52 0.813-0.52 1.38v0 22c0 0.533 0.173 0.983 0.52 1.35 0.353 0.367 0.763 0.55 1.23 0.55zM46.35 0h-18.55l6.75-17.05h-2.65l1.85-4.65h2.65l3.45-8.65h-12.05v-4.65h18.55l-5.3 13.3h2.7l-1.8 4.65h-2.75l-4.95 12.4h12.1zM67.4 0h-11.35c-0.933 0-1.75-0.35-2.45-1.05-0.7-0.7-1.05-1.567-1.05-2.6v0-27.7c0-1.033 0.35-1.9 1.05-2.6 0.7-0.7 1.517-1.05 2.45-1.05v0h11.35c1.067 0 1.943 0.35 2.63 1.05 0.68 0.7 1.02 1.567 1.02 2.6v0 27.7c0 1.033-0.34 1.9-1.02 2.6-0.687 0.7-1.563 1.05-2.63 1.05zM58.9-4.6v0h5.65c0.567 0 1.027-0.183 1.38-0.55 0.347-0.367 0.52-0.817 0.52-1.35v0-22c0-0.567-0.173-1.027-0.52-1.38-0.353-0.347-0.813-0.52-1.38-0.52v0h-5.65c-0.467 0-0.873 0.173-1.22 0.52-0.353 0.353-0.53 0.813-0.53 1.38v0 22c0 0.533 0.177 0.983 0.53 1.35 0.347 0.367 0.753 0.55 1.22 0.55zM79.3 0h-4.65v-35h15c0.967 0 1.8 0.35 2.5 1.05 0.7 0.7 1.05 1.55 1.05 2.55v0 10.75c0 1-0.35 1.85-1.05 2.55-0.7 0.7-1.533 1.05-2.5 1.05v0h-1.05l4.6 17.05h-4.6l-4.65-17.05h-4.65zM79.3-30.35v8.65h7.5c0.467 0 0.883-0.177 1.25-0.53 0.367-0.347 0.55-0.77 0.55-1.27v0-5.05c0-0.5-0.183-0.927-0.55-1.28-0.367-0.347-0.783-0.52-1.25-0.52v0zM100.45 0.05h-4.65l7.05-35h4.55l6.95 35h-4.65l-1.35-6.55h-6.65zM105.15-23.55l-2.55 12.45h4.95z" fill="#000000" fill-rule="nonzero" stroke="none" stroke-width="1" stroke-linecap="butt" stroke-linejoin="miter" stroke-miterlimit="10" stroke-dasharray="" stroke-dashoffset="0" font-family="none" font-weight="none" font-size="none" text-anchor="none" style="mix-blend-mode: normal" data-fill-palette-color="primary" opacity="1"></path><path transform="translate(0,38.05)" d="M14.3 0h-4.85l-6.85-35h4.65l4.65 23.65 4.65-23.65h4.65l4.6 23.65 4.65-23.65h4.65l-6.85 35h-4.85l-4.55-23.2zM37.95 0.05h-4.65l7.05-35h4.55l6.95 35h-4.65l-1.35-6.55h-6.65zM42.65-23.55l-2.55 12.45h4.95zM61.95 0h-4.65v-30.35h-6.95v-4.65h18.55v4.65h-6.95zM86.85 0h-11.35c-0.933 0-1.767-0.35-2.5-1.05-0.733-0.7-1.1-1.55-1.1-2.55v0-27.8c0-0.967 0.367-1.81 1.1-2.53 0.733-0.713 1.567-1.07 2.5-1.07v0h11.35c1.033 0 1.893 0.357 2.58 1.07 0.68 0.72 1.02 1.563 1.02 2.53v0 6.5l-4.65 1.05v-4.7c0-0.467-0.157-0.883-0.47-1.25-0.32-0.367-0.747-0.55-1.28-0.55v0h-5.7c-0.467 0-0.883 0.183-1.25 0.55-0.367 0.367-0.55 0.783-0.55 1.25v0 22.1c0 0.533 0.183 0.967 0.55 1.3 0.367 0.333 0.783 0.5 1.25 0.5v0h5.7c0.533 0 0.96-0.167 1.28-0.5 0.313-0.333 0.47-0.767 0.47-1.3v0-3.65l4.65-1.1v7.6c0 1-0.34 1.85-1.02 2.55-0.687 0.7-1.547 1.05-2.58 1.05zM99.3 0h-4.65v-35h4.65v13.3h9.3v-13.3h4.6v35h-4.6v-17.05h-9.3zM135.85 0h-18.6v-35h18.6v4.6h-13.95v8.7h9.3l-1.05 4.65h-8.25v12.4h13.95zM153.8 0h-11.35c-1 0-1.85-0.35-2.55-1.05-0.7-0.7-1.05-1.55-1.05-2.55v0-7.75l4.65 1.05v3.85c0 0.5 0.177 0.923 0.53 1.27 0.347 0.353 0.753 0.53 1.22 0.53v0h5.7c0.5 0 0.927-0.177 1.28-0.53 0.347-0.347 0.52-0.77 0.52-1.27v0-8.8c0-0.5-0.173-0.927-0.52-1.28-0.353-0.347-0.78-0.52-1.28-0.52v0h-8.5c-1 0-1.85-0.35-2.55-1.05-0.7-0.7-1.05-1.55-1.05-2.55v0-10.75c0-1 0.35-1.85 1.05-2.55 0.7-0.7 1.55-1.05 2.55-1.05v0h11.35c1 0 1.85 0.35 2.55 1.05 0.7 0.7 1.05 1.55 1.05 2.55v0 5.4l-4.65-1.1v-1.45c0-0.5-0.173-0.927-0.52-1.28-0.353-0.347-0.78-0.52-1.28-0.52v0h-5.7c-0.467 0-0.873 0.173-1.22 0.52-0.353 0.353-0.53 0.78-0.53 1.28v0 5.05c0 0.5 0.177 0.923 0.53 1.27 0.347 0.353 0.753 0.53 1.22 0.53v0h8.55c1 0 1.85 0.35 2.55 1.05 0.7 0.7 1.05 1.55 1.05 2.55v0 14.5c0 1-0.35 1.85-1.05 2.55-0.7 0.7-1.55 1.05-2.55 1.05z" fill="#000000" fill-rule="nonzero" stroke="none" stroke-width="1" stroke-linecap="butt" stroke-linejoin="miter" stroke-miterlimit="10" stroke-dasharray="" stroke-dashoffset="0" font-family="none" font-weight="none" font-size="none" text-anchor="none" style="mix-blend-mode: normal" data-fill-palette-color="primary" opacity="1"></path></g></svg></g></svg></g></svg></g></svg></g><g transform="matrix(1,0,0,1,0,0.48609612403099334)"><svg viewBox="0 0 194.43149735241028 194.43844961240308" height="194.43844961240308" width="194.43149735241028"><g><svg xmlns="http://www.w3.org/2000/svg" xmlns:xlink="http://www.w3.org/1999/xlink" version="1.1" x="0" y="0" viewBox="0.0022005525735069864 0 99.9954244775228 99.999" enable-background="new 0 0 100 100" xml:space="preserve" height="194.43844961240308" width="194.43149735241028" class="icon-icon-0" data-fill-palette-color="accent" id="icon-0"><g fill="#54544f" data-fill-palette-color="accent"><g fill="#54544f" data-fill-palette-color="accent"><path d="M54.981 33.014l-1.932-0.518-1.555 5.801 1.932 0.518L54.981 33.014zM34.397 45.632l-7.241-1.938-0.518 1.932 7.241 1.938L34.397 45.632zM63.023 38.254l-1.414-1.414-4.246 4.247 1.414 1.414L63.023 38.254zM95.225 24.457L75.408 4.64l-1.414 1.414 19.816 19.816L95.225 24.457zM46.146 35.297l-1.938-7.243-1.932 0.518 1.938 7.243L46.146 35.297zM75.762 68.686c-0.194-0.193-0.451-0.291-0.707-0.291s-0.513 0.098-0.707 0.291l-4.955 4.957c-0.389 0.389-0.389 1.025 0 1.414l2.125 2.125c0.193 0.193 0.45 0.291 0.707 0.291 0.256 0 0.512-0.098 0.707-0.291l4.955-4.957c0.389-0.389 0.389-1.025 0-1.414L75.762 68.686zM72.225 75.061l-0.711-0.711 3.541-3.543 0.711 0.711L72.225 75.061zM98.83 23.814l-5.695-5.695L76.117 1.1l-0.008 0.008C75.34 0.375 74.349 0 73.353 0c-1.026 0-2.052 0.39-2.831 1.168 0 0-14.893 12.062-24.092 14.185l-3.951-0.829c-5.112 3.697-10.201 8.003-15.113 12.843-4.84 4.912-9.145 10.001-12.843 15.113l0.829 3.95C13.229 55.631 1.166 70.523 1.166 70.523c-1.534 1.533-1.549 4.025-0.06 5.588l-0.007 0.006 0.065 0.064c0 0 0.001 0.002 0.002 0.004l11.29 11.289 11.29 11.291h0l0.066 0.066c0.779 0.779 1.805 1.168 2.831 1.168 1.026 0 2.052-0.389 2.831-1.168 0 0 14.893-12.063 24.093-14.186l3.949 0.83c3.214-2.324 6.414-4.912 9.571-7.697l0.603-3.01 1.414-1.414 4.247-4.248 1.415-1.414 3.01-0.604c2.785-3.158 5.373-6.357 7.697-9.57l-0.83-3.951c2.123-9.2 14.186-24.092 14.186-24.092C100.387 27.919 100.387 25.372 98.83 23.814zM76.116 3.929l15.038 15.038 4.78 4.78-2.833 2.832-0.001-0.001-1.414 1.414 0.001 0.001-2.832 2.833-0.001-0.001L87.44 32.24l0.001 0.001-2.832 2.832-0.002-0.001-1.414 1.414 0.002 0.001L73.147 46.535c-0.825-1.285-1.724-2.539-2.655-3.779-0.105-0.143-0.218-0.283-0.326-0.426-0.499-0.653-1.004-1.304-1.533-1.944-0.238-0.288-0.49-0.572-0.735-0.859-0.448-0.524-0.891-1.05-1.358-1.563-0.44-0.486-0.908-0.963-1.369-1.441-0.299-0.312-0.584-0.631-0.891-0.938-0.3-0.3-0.613-0.578-0.917-0.871-0.486-0.469-0.971-0.943-1.464-1.392-0.502-0.456-1.018-0.89-1.529-1.327-0.299-0.256-0.597-0.521-0.898-0.77-0.631-0.521-1.271-1.018-1.915-1.51-0.152-0.116-0.304-0.236-0.456-0.351-1.238-0.929-2.489-1.825-3.771-2.647l10.048-10.048 0.002 0.001 1.414-1.414-0.002-0.001 2.832-2.832 0.002 0.001 1.414-1.414-0.002-0.001 2.832-2.832 0.002 0.001 1.414-1.414-0.002-0.002L76.116 3.929zM75.066 54.441c-1.666 2.115-6.013 7.512-10.271 11.77-3.278 3.277-9.461 8.365-11.793 10.262-2.126-0.924-4.244-2.051-6.332-3.344-3.781-2.381-7.532-5.35-11.059-8.875-3.527-3.527-6.493-7.277-8.875-11.059-1.294-2.088-2.422-4.207-3.347-6.333 1.897-2.332 6.984-8.514 10.263-11.792 3.692-3.692 9.541-8.465 11.784-10.267 4.513 1.96 8.995 4.793 13.208 8.329 0.076 0.064 0.152 0.131 0.229 0.195 0.59 0.5 1.174 1.016 1.752 1.542 0.104 0.095 0.208 0.188 0.312 0.283 0.65 0.601 1.293 1.215 1.927 1.848 0.635 0.635 1.25 1.279 1.852 1.932 0.093 0.1 0.182 0.2 0.272 0.3 0.533 0.585 1.055 1.175 1.56 1.771 0.06 0.071 0.122 0.142 0.181 0.213C70.27 45.433 73.105 49.921 75.066 54.441zM71.781 2.723l0.081-0.066 0.074-0.074C72.312 2.207 72.814 2 73.353 2c0.505 0 0.976 0.188 1.343 0.521l-2.826 2.825L70.362 3.84C71.168 3.216 71.676 2.807 71.781 2.723zM68.757 5.063l1.698 1.698-2.832 2.832-2.145-2.145C66.715 6.576 67.823 5.762 68.757 5.063zM63.809 8.608l2.4 2.399-2.832 2.832-2.983-2.982C61.58 10.106 62.729 9.347 63.809 8.608zM17.3 46.88l0.099-0.43-0.09-0.432-0.646-3.079c3.571-4.859 7.647-9.622 12.107-14.148 4.548-4.481 9.311-8.558 14.168-12.128l3.081 0.646 0.431 0.091 0.429-0.099c3.537-0.816 7.786-2.962 11.768-5.364l3.316 3.315L51.531 25.685c-2.15-1.254-4.3-2.331-6.416-3.185 0 0-8.116 6.394-12.877 11.155-4.2 4.199-11.155 12.877-11.155 12.877 0.854 2.115 1.931 4.266 3.185 6.417l-9.016 9.016-3.317-3.316C14.338 54.666 16.484 50.417 17.3 46.88zM10.855 60.395l2.984 2.984-2.833 2.832-2.4-2.4C9.345 62.729 10.104 61.582 10.855 60.395zM7.447 65.479l2.146 2.146L6.76 70.457l-1.7-1.699C5.76 67.824 6.574 66.715 7.447 65.479zM2.581 71.938l0.074-0.074 0.066-0.082c0.084-0.104 0.494-0.611 1.118-1.418l1.508 1.508L2.52 74.697C1.807 73.912 1.822 72.695 2.581 71.938zM23.747 95.938l-6.443-6.443L3.928 76.117l2.833-2.832 0.001 0.002 1.414-1.414-0.001-0.002 2.833-2.832 0.001 0.002 1.414-1.414-0.001-0.002 2.832-2.832 0.001 0.002 1.414-1.414-0.001-0.002 8.664-8.664c0.068 0.105 0.145 0.209 0.213 0.314 2.343 3.646 5.22 7.262 8.625 10.666 3.404 3.404 7.019 6.281 10.666 8.623 0.105 0.068 0.208 0.146 0.314 0.215l-8.664 8.664-0.001-0.002-1.414 1.414 0.001 0.002-2.833 2.832h0l-1.414 1.414h0l-2.832 2.832-0.001-0.002-1.414 1.414 0.001 0.002L23.747 95.938zM28.216 97.277l-0.082 0.066-0.074 0.074C27.685 97.793 27.182 98 26.644 98s-1.041-0.207-1.417-0.582l-0.066-0.066 2.833-2.834 1.642 1.643C28.829 96.783 28.321 97.193 28.216 97.277zM31.241 94.938l-1.833-1.834 2.832-2.832 2.28 2.279C33.283 93.424 32.174 94.236 31.241 94.938zM36.188 91.393l-2.535-2.535 2.833-2.832 3.117 3.117C38.417 89.895 37.269 90.652 36.188 91.393zM82.696 53.119l-0.099 0.43 0.09 0.432 0.646 3.08c-1.969 2.674-4.189 5.428-6.613 8.201l-2.346 0.471-0.593 0.119-0.429 0.428-1.415 1.414-4.247 4.248-1.414 1.414-0.429 0.428-0.118 0.594-0.47 2.346c-2.773 2.424-5.526 4.643-8.202 6.613l-3.08-0.646-0.432-0.09-0.429 0.098c-3.536 0.816-7.787 2.963-11.768 5.365l-3.45-3.451 9.016-9.016c2.15 1.254 4.301 2.33 6.416 3.184 0 0 8.679-6.955 12.878-11.154 5.548-5.547 11.154-12.877 11.154-12.877-0.854-2.115-1.932-4.265-3.185-6.416l10.431-10.431 3.451 3.45C85.658 45.333 83.512 49.583 82.696 53.119zM89.141 39.605l-3.117-3.117 2.832-2.833 2.535 2.534C90.651 37.271 89.893 38.417 89.141 39.605zM92.549 34.52l-2.279-2.279 2.832-2.832 1.834 1.833C94.235 32.175 93.422 33.284 92.549 34.52zM97.416 28.062l-0.074 0.074-0.066 0.081c-0.084 0.104-0.493 0.612-1.117 1.419l-1.643-1.642 2.834-2.833 0.066 0.066c0.375 0.376 0.582 0.879 0.582 1.417S97.791 27.687 97.416 28.062zM65.502 14.547l19.815 19.815 1.414-1.414L66.916 13.133 65.502 14.547zM69.748 10.3l19.815 19.815 1.414-1.414L71.162 8.886 69.748 10.3zM61.256 18.792L81.07 38.609l1.414-1.414L62.67 17.378 61.256 18.792zM43.466 68.266l1.932 0.518 1.554-5.801-1.932-0.518L43.466 68.266zM61.566 48.369l5.801-1.555-0.518-1.932-5.801 1.555L61.566 48.369zM36.881 52.912l-5.801 1.555 0.518 1.932 5.801-1.555L36.881 52.912zM38.607 81.072L18.792 61.258l-1.414 1.414 19.816 19.814L38.607 81.072zM53.076 48.306l-3.115 1.335h-0.016l-4.019-12.056-1.897 0.633 4.073 12.22L33.26 56.799l0.788 1.838 14.688-6.295 0.954 2.861 1.897-0.633-0.977-2.93h18.428v-2H53.648L53.076 48.306zM34.361 85.318L14.545 65.502l-1.414 1.414 19.816 19.816L34.361 85.318zM4.639 75.41l19.816 19.814 1.414-1.414L6.053 73.996 4.639 75.41zM30.115 89.564L10.299 69.75l-1.414 1.414 19.816 19.814L30.115 89.564zM35.424 63.025l1.414 1.414 4.247-4.244-1.414-1.414L35.424 63.025zM57.363 60.195l4.246 4.244 1.414-1.414-4.246-4.244L57.363 60.195zM64.049 55.648l7.242 1.939 0.518-1.932-7.242-1.939L64.049 55.648zM52.301 65.984l1.938 7.242 1.932-0.518-1.938-7.242L52.301 65.984z" fill="#54544f" data-fill-palette-color="accent"></path></g></g></svg></g></svg></g></svg></g><defs></defs></svg><rect width="395.52" height="120.70517228520266" fill="none" stroke="none" visibility="hidden"></rect></g></svg></g></svg>