<svg xmlns="http://www.w3.org/2000/svg" version="1.1" xmlns:xlink="http://www.w3.org/1999/xlink" xmlns:svgjs="http://svgjs.dev/svgjs" width="1500" height="734" viewBox="0 0 1500 734"><g transform="matrix(1,0,0,1,-0.9090909090909918,0.8294381842882785)"><svg viewBox="0 0 396 194" data-background-color="#f9f9f9" preserveAspectRatio="xMidYMid meet" height="734" width="1500" xmlns="http://www.w3.org/2000/svg" xmlns:xlink="http://www.w3.org/1999/xlink"><g id="tight-bounds" transform="matrix(1,0,0,1,0.2400000000000091,-0.21922480620153806)"><svg viewBox="0 0 395.52 194.43844961240308" height="194.43844961240308" width="395.52"><g><svg viewBox="0 0 395.52 194.43844961240308" height="194.43844961240308" width="395.52"><g><svg viewBox="0 0 395.52 194.43844961240308" height="194.43844961240308" width="395.52"><g id="textblocktransform"><svg viewBox="0 0 395.52 194.43844961240308" height="194.43844961240308" width="395.52" id="textblock"><g><svg viewBox="0 0 395.52 194.43844961240308" height="194.43844961240308" width="395.52"><g transform="matrix(1,0,0,1,0,0)"><svg width="395.52" viewBox="2.6000000000000014 -35 154.80000000000004 73.1" height="194.43844961240308" data-palette-color="#030303"><svg></svg><svg></svg><g class="wordmark-text-0" data-fill-palette-color="primary" id="text-0"><path d="M17.95 0h-11.35c-0.933 0-1.75-0.35-2.45-1.05-0.7-0.7-1.05-1.567-1.05-2.6v0-27.7c0-1.033 0.35-1.9 1.05-2.6 0.7-0.7 1.517-1.05 2.45-1.05v0h11.35c1.067 0 1.943 0.35 2.63 1.05 0.68 0.7 1.02 1.567 1.02 2.6v0 27.7c0 1.033-0.34 1.9-1.02 2.6-0.687 0.7-1.563 1.05-2.63 1.05zM9.45-4.6v0h5.65c0.567 0 1.027-0.183 1.38-0.55 0.347-0.367 0.52-0.817 0.52-1.35v0-22c0-0.567-0.173-1.027-0.52-1.38-0.353-0.347-0.813-0.52-1.38-0.52v0h-5.65c-0.467 0-0.877 0.173-1.23 0.52-0.347 0.353-0.52 0.813-0.52 1.38v0 22c0 0.533 0.173 0.983 0.52 1.35 0.353 0.367 0.763 0.55 1.23 0.55zM46.35 0h-18.55l6.75-17.05h-2.65l1.85-4.65h2.65l3.45-8.65h-12.05v-4.65h18.55l-5.3 13.3h2.7l-1.8 4.65h-2.75l-4.95 12.4h12.1zM67.4 0h-11.35c-0.933 0-1.75-0.35-2.45-1.05-0.7-0.7-1.05-1.567-1.05-2.6v0-27.7c0-1.033 0.35-1.9 1.05-2.6 0.7-0.7 1.517-1.05 2.45-1.05v0h11.35c1.067 0 1.943 0.35 2.63 1.05 0.68 0.7 1.02 1.567 1.02 2.6v0 27.7c0 1.033-0.34 1.9-1.02 2.6-0.687 0.7-1.563 1.05-2.63 1.05zM58.9-4.6v0h5.65c0.567 0 1.027-0.183 1.38-0.55 0.347-0.367 0.52-0.817 0.52-1.35v0-22c0-0.567-0.173-1.027-0.52-1.38-0.353-0.347-0.813-0.52-1.38-0.52v0h-5.65c-0.467 0-0.873 0.173-1.22 0.52-0.353 0.353-0.53 0.813-0.53 1.38v0 22c0 0.533 0.177 0.983 0.53 1.35 0.347 0.367 0.753 0.55 1.22 0.55zM79.3 0h-4.65v-35h15c0.967 0 1.8 0.35 2.5 1.05 0.7 0.7 1.05 1.55 1.05 2.55v0 10.75c0 1-0.35 1.85-1.05 2.55-0.7 0.7-1.533 1.05-2.5 1.05v0h-1.05l4.6 17.05h-4.6l-4.65-17.05h-4.65zM79.3-30.35v8.65h7.5c0.467 0 0.883-0.177 1.25-0.53 0.367-0.347 0.55-0.77 0.55-1.27v0-5.05c0-0.5-0.183-0.927-0.55-1.28-0.367-0.347-0.783-0.52-1.25-0.52v0zM100.45 0.05h-4.65l7.05-35h4.55l6.95 35h-4.65l-1.35-6.55h-6.65zM105.15-23.55l-2.55 12.45h4.95z" fill="#030303" fill-rule="nonzero" stroke="none" stroke-width="1" stroke-linecap="butt" stroke-linejoin="miter" stroke-miterlimit="10" stroke-dasharray="" stroke-dashoffset="0" font-family="none" font-weight="none" font-size="none" text-anchor="none" style="mix-blend-mode: normal" data-fill-palette-color="primary" opacity="1"></path><path d="M14.3 38.05h-4.85l-6.85-35h4.65l4.65 23.65 4.65-23.65h4.65l4.6 23.65 4.65-23.65h4.65l-6.85 35h-4.85l-4.55-23.2zM37.95 38.1h-4.65l7.05-35h4.55l6.95 35h-4.65l-1.35-6.55h-6.65zM42.65 14.5l-2.55 12.45h4.95zM61.95 38.05h-4.65v-30.35h-6.95v-4.65h18.55v4.65h-6.95zM86.85 38.05h-11.35c-0.933 0-1.767-0.35-2.5-1.05-0.733-0.7-1.1-1.55-1.1-2.55v0-27.8c0-0.967 0.367-1.81 1.1-2.53 0.733-0.713 1.567-1.07 2.5-1.07v0h11.35c1.033 0 1.893 0.357 2.58 1.07 0.68 0.72 1.02 1.563 1.02 2.53v0 6.5l-4.65 1.05v-4.7c0-0.467-0.157-0.883-0.47-1.25-0.32-0.367-0.747-0.55-1.28-0.55v0h-5.7c-0.467 0-0.883 0.183-1.25 0.55-0.367 0.367-0.55 0.783-0.55 1.25v0 22.1c0 0.533 0.183 0.967 0.55 1.3 0.367 0.333 0.783 0.5 1.25 0.5v0h5.7c0.533 0 0.96-0.167 1.28-0.5 0.313-0.333 0.47-0.767 0.47-1.3v0-3.65l4.65-1.1v7.6c0 1-0.34 1.85-1.02 2.55-0.687 0.7-1.547 1.05-2.58 1.05zM99.3 38.05h-4.65v-35h4.65v13.3h9.3v-13.3h4.6v35h-4.6v-17.05h-9.3zM135.85 38.05h-18.6v-35h18.6v4.6h-13.95v8.7h9.3l-1.05 4.65h-8.25v12.4h13.95zM153.8 38.05h-11.35c-1 0-1.85-0.35-2.55-1.05-0.7-0.7-1.05-1.55-1.05-2.55v0-7.75l4.65 1.05v3.85c0 0.5 0.177 0.923 0.53 1.27 0.347 0.353 0.753 0.53 1.22 0.53v0h5.7c0.5 0 0.927-0.177 1.28-0.53 0.347-0.347 0.52-0.77 0.52-1.27v0-8.8c0-0.5-0.173-0.927-0.52-1.28-0.353-0.347-0.78-0.52-1.28-0.52v0h-8.5c-1 0-1.85-0.35-2.55-1.05-0.7-0.7-1.05-1.55-1.05-2.55v0-10.75c0-1 0.35-1.85 1.05-2.55 0.7-0.7 1.55-1.05 2.55-1.05v0h11.35c1 0 1.85 0.35 2.55 1.05 0.7 0.7 1.05 1.55 1.05 2.55v0 5.4l-4.65-1.1v-1.45c0-0.5-0.173-0.927-0.52-1.28-0.353-0.347-0.78-0.52-1.28-0.52v0h-5.7c-0.467 0-0.873 0.173-1.22 0.52-0.353 0.353-0.53 0.78-0.53 1.28v0 5.05c0 0.5 0.177 0.923 0.53 1.27 0.347 0.353 0.753 0.53 1.22 0.53v0h8.55c1 0 1.85 0.35 2.55 1.05 0.7 0.7 1.05 1.55 1.05 2.55v0 14.5c0 1-0.35 1.85-1.05 2.55-0.7 0.7-1.55 1.05-2.55 1.05z" fill="#030303" fill-rule="nonzero" stroke="none" stroke-width="1" stroke-linecap="butt" stroke-linejoin="miter" stroke-miterlimit="10" stroke-dasharray="" stroke-dashoffset="0" font-family="none" font-weight="none" font-size="none" text-anchor="none" style="mix-blend-mode: normal" data-fill-palette-color="primary" opacity="1"></path></g></svg></g></svg></g></svg></g></svg></g></svg></g><defs></defs></svg><rect width="395.52" height="194.43844961240308" fill="none" stroke="none" visibility="hidden"></rect></g></svg></g></svg>